<svg width="60" height="42" viewBox="0 0 60 42" fill="none" xmlns="http://www.w3.org/2000/svg">
<g clip-path="url(#clip0_1_85)">
<g opacity="0.2">
<path d="M52.3817 5.06525C53.5523 2.7381 51.8498 0 49.2323 0H44.4297C43.096 0 41.8768 0.749008 41.2803 1.93476L35.6615 13.1049C34.4392 15.535 33.8028 18.2144 33.8028 20.9312V35C33.8028 38.866 36.9558 42 40.845 42H52.1127C56.002 42 59.1549 38.866 59.1549 35V23.8C59.1549 19.934 56.002 16.8 52.1127 16.8H49.3275C48.0188 16.8 47.1675 15.431 47.7528 14.2674L52.3817 5.06525ZM18.5789 5.06525C19.7495 2.7381 18.047 0 15.4295 0H10.6268C9.29315 0 8.07394 0.749009 7.47749 1.93476L1.85868 13.1049C0.636359 15.535 0 18.2144 0 20.9312V35C0 38.866 3.15292 42 7.04225 42H18.3099C22.1992 42 25.3521 38.866 25.3521 35V23.8C25.3521 19.934 22.1992 16.8 18.3099 16.8H15.5247C14.2159 16.8 13.3647 15.431 13.95 14.2674L18.5789 5.06525Z" fill="#220E5B"/>
</g>
</g>
<defs>
<clipPath id="clip0_1_85">
<rect width="60" height="42" fill="white"/>
</clipPath>
</defs>
</svg>
