<svg width="22" height="22" viewBox="0 0 22 22" fill="none" xmlns="http://www.w3.org/2000/svg">
<path d="M20.7778 4.47403C20.0137 4.81702 19.1929 5.04877 18.3299 5.15352C19.2203 4.61381 19.8864 3.76437 20.204 2.76371C19.3675 3.26706 18.452 3.62136 17.4972 3.81122C16.8552 3.11677 16.0048 2.65648 15.0781 2.5018C14.1513 2.34713 13.2001 2.50673 12.3721 2.95583C11.5441 3.40493 10.8856 4.11839 10.4988 4.98546C10.1121 5.85252 10.0188 6.82467 10.2333 7.75098C8.53831 7.66477 6.88014 7.21846 5.36641 6.44104C3.85268 5.66361 2.51724 4.57244 1.44674 3.23833C1.08071 3.87796 0.87024 4.61957 0.87024 5.40937C0.869832 6.12038 1.04267 6.8205 1.37342 7.4476C1.70417 8.07471 2.18261 8.60942 2.76628 9.00429C2.08938 8.98247 1.42741 8.79718 0.835467 8.46385V8.51947C0.835399 9.51668 1.17591 10.4832 1.79921 11.2551C2.42252 12.0269 3.29023 12.5565 4.25512 12.754C3.62717 12.9262 2.96882 12.9515 2.32979 12.8282C2.60202 13.6862 3.13231 14.4366 3.84641 14.9741C4.56051 15.5117 5.42268 15.8096 6.31221 15.8261C4.80218 17.027 2.9373 17.6783 1.01757 17.6755C0.677507 17.6756 0.337734 17.6555 0 17.6152C1.94864 18.8845 4.21699 19.5581 6.53366 19.5554C14.3759 19.5554 18.663 12.9756 18.663 7.26894C18.663 7.08354 18.6585 6.89629 18.6502 6.71088C19.4841 6.09997 20.2039 5.34346 20.7759 4.47681L20.7778 4.47403Z" fill="#CFF47F"/>
</svg>
