<svg width="200" height="360" viewBox="0 0 200 360" fill="none" xmlns="http://www.w3.org/2000/svg">
<g clip-path="url(#clip0_1_53)">
<path fill-rule="evenodd" clip-rule="evenodd" d="M178.049 21.3032C178.049 9.5378 187.569 0 199.313 0H140.524C152.268 0 161.789 9.53772 161.789 21.3032V103.919C161.789 118.106 154.244 131.219 141.99 138.33L37.1194 199.189C27.228 204.93 21.138 215.514 21.138 226.966V338.696C21.138 350.42 11.6859 359.932 0 360H58.6629C46.9188 360 37.3982 350.462 37.3982 338.696V226.966C37.3982 221.325 40.3978 216.112 45.2698 213.285L150.141 152.426C167.414 142.401 178.049 123.917 178.049 103.919V21.3032Z" fill="white"/>
</g>
<defs>
<clipPath id="clip0_1_53">
<rect width="200" height="360" fill="white"/>
</clipPath>
</defs>
</svg>
