<svg width="18" height="18" viewBox="0 0 18 18" fill="none" xmlns="http://www.w3.org/2000/svg">
<mask id="mask0_1_103" style="mask-type:luminance" maskUnits="userSpaceOnUse" x="1" y="1" width="16" height="16">
<path d="M16.3636 1.63623H1.63637V16.3635H16.3636V1.63623Z" fill="white"/>
</mask>
<g mask="url(#mask0_1_103)">
<path d="M4.97959 16.3635V6.42704H1.82263V16.3635H4.97959ZM3.40151 5.06957C4.5024 5.06957 5.18765 4.30656 5.18765 3.35306C5.16714 2.37806 4.50244 1.63623 3.42241 1.63623C2.34253 1.63623 1.63637 2.37808 1.63637 3.35306C1.63637 4.3066 2.32145 5.06957 3.3809 5.06957H3.40151ZM6.72696 16.3635H9.88389V10.8145C9.88389 10.5175 9.90442 10.2208 9.98779 10.0085C10.216 9.41518 10.7354 8.80064 11.6075 8.80064C12.7499 8.80064 13.2069 9.71185 13.2069 11.0476V16.3634H16.3637V10.6659C16.3637 7.61387 14.8062 6.19376 12.7291 6.19376C11.0261 6.19376 10.2783 7.18965 9.86294 7.86794H9.88397V6.42683H6.72702C6.76845 7.35922 6.72696 16.3635 6.72696 16.3635Z" fill="#CFF47F"/>
</g>
</svg>
